<svg xmlns="http://www.w3.org/2000/svg" width="128" height="128" viewBox="0 0 128 128">
  <rect width="128" height="128" rx="16" fill="#4CAF50" />
  <path d="M64 32C45.2 32 30 47.2 30 66C30 84.8 45.2 100 64 100C82.8 100 98 84.8 98 66C98 47.2 82.8 32 64 32ZM64 92C49.6 92 38 80.4 38 66C38 51.6 49.6 40 64 40C78.4 40 90 51.6 90 66C90 80.4 78.4 92 64 92Z" fill="white" />
  <circle cx="64" cy="66" r="18" fill="#4CAF50" />
  <path d="M82 48L46 84" stroke="white" stroke-width="6" stroke-linecap="round" />
  <path d="M46 48L82 84" stroke="white" stroke-width="6" stroke-linecap="round" />
</svg> 